HIERARCHY
ROOT Hips
{
	OFFSET 0.000000 0.000000 0.000000
	CHANNELS 6 Xposition Yposition Zposition Zrotation Yrotation Xrotation 
	JOINT LHipJoint
	{
		OFFSET 0.000000 0.000000 0.000000
		CHANNELS 3 Zrotation Yrotation Xrotation
		JOINT LeftUpLeg
		{
			OFFSET 1.363060 -1.794630 0.839290
			CHANNELS 3 Zrotation Yrotation Xrotation
			JOINT LeftLeg
			{
				OFFSET 2.448110 -6.726130 0.000000
				CHANNELS 3 Zrotation Yrotation Xrotation
				JOINT LeftFoot
				{
					OFFSET 2.562200 -7.039590 0.000000
					CHANNELS 3 Zrotation Yrotation Xrotation
					JOINT LeftToeBase
					{
						OFFSET 0.157640 -0.433110 2.322550
						CHANNELS 3 Zrotation Yrotation Xrotation
						End Site
						{
							OFFSET 0.000000 0.000000 0.000000
						}
					}
				}
			}
		}
	}
	JOINT RHipJoint
	{
		OFFSET 0.000000 0.000000 0.000000
		CHANNELS 3 Zrotation Yrotation Xrotation
		JOINT RightUpLeg
		{
			OFFSET -1.305520 -1.794630 0.839290
			CHANNELS 3 Zrotation Yrotation Xrotation
			JOINT RightLeg
			{
				OFFSET -2.542530 -6.985550 0.000000
				CHANNELS 3 Zrotation Yrotation Xrotation
				JOINT RightFoot
				{
					OFFSET -2.568260 -7.056230 0.000000
					CHANNELS 3 Zrotation Yrotation Xrotation
					JOINT RightToeBase
					{
						OFFSET -0.164730 -0.452590 2.363150
						CHANNELS 3 Zrotation Yrotation Xrotation
						End Site
						{
							OFFSET 0.000000 0.000000 0.000000
						}
					}
				}
			}
		}
	}
	JOINT LowerBack
	{
		OFFSET 0.000000 0.000000 0.000000
		CHANNELS 3 Zrotation Yrotation Xrotation
		JOINT Spine
		{
			OFFSET 0.028270 2.035590 -0.193380
			CHANNELS 3 Zrotation Yrotation Xrotation
			JOINT Spine1
			{
				OFFSET 0.056720 2.048850 -0.042750
				CHANNELS 3 Zrotation Yrotation Xrotation
				JOINT Neck
				{
					OFFSET 0.000000 0.000000 0.000000
					CHANNELS 3 Zrotation Yrotation Xrotation
					JOINT Neck1
					{
						OFFSET -0.054170 1.746240 0.172020
						CHANNELS 3 Zrotation Yrotation Xrotation
						JOINT Head
						{
							OFFSET 0.104070 1.761360 -0.123970
							CHANNELS 3 Zrotation Yrotation Xrotation
							End Site
							{
								OFFSET 0.000000 0.000000 0.000000
							}
						}
					}
				}
				JOINT LeftShoulder
				{
					OFFSET 0.000000 0.000000 0.000000
					CHANNELS 3 Zrotation Yrotation Xrotation
					JOINT LeftArm
					{
						OFFSET 3.362410 1.200890 -0.311210
						CHANNELS 3 Zrotation Yrotation Xrotation
						JOINT LeftForeArm
						{
							OFFSET 4.983000 -0.000000 -0.000000
							CHANNELS 3 Zrotation Yrotation Xrotation
							JOINT LeftHand
							{
								OFFSET 3.483560 -0.000000 -0.000000
								CHANNELS 3 Zrotation Yrotation Xrotation
								JOINT LeftFingerBase
								{
									OFFSET 0.000000 0.000000 0.000000
									CHANNELS 3 Zrotation Yrotation Xrotation
									JOINT LeftHandIndex1
									{
										OFFSET 0.715260 -0.000000 -0.000000
										CHANNELS 3 Zrotation Yrotation Xrotation
										End Site
										{
											OFFSET 0.000000 0.000000 0.000000
										}
									}
								}
								JOINT LThumb
								{
									OFFSET 0.000000 0.000000 0.000000
									CHANNELS 3 Zrotation Yrotation Xrotation
									End Site
									{
										OFFSET 0.000000 0.000000 0.000000
									}
								}
							}
						}
					}
				}
				JOINT RightShoulder
				{
					OFFSET 0.000000 0.000000 0.000000
					CHANNELS 3 Zrotation Yrotation Xrotation
					JOINT RightArm
					{
						OFFSET -3.136600 1.374050 -0.404650
						CHANNELS 3 Zrotation Yrotation Xrotation
						JOINT RightForeArm
						{
							OFFSET -5.241900 -0.000000 -0.000000
							CHANNELS 3 Zrotation Yrotation Xrotation
							JOINT RightHand
							{
								OFFSET -3.444170 -0.000000 -0.000000
								CHANNELS 3 Zrotation Yrotation Xrotation
								JOINT RightFingerBase
								{
									OFFSET 0.000000 0.000000 0.000000
									CHANNELS 3 Zrotation Yrotation Xrotation
									JOINT RightHandIndex1
									{
										OFFSET -0.622530 -0.000000 -0.000000
										CHANNELS 3 Zrotation Yrotation Xrotation
										End Site
										{
											OFFSET 0.000000 0.000000 0.000000
										}
									}
								}
								JOINT RThumb
								{
									OFFSET 0.000000 0.000000 0.000000
									CHANNELS 3 Zrotation Yrotation Xrotation
									End Site
									{
										OFFSET 0.000000 0.000000 0.000000
									}
								}
							}
						}
					}
				}
			}
		}
	}
}
MOTION
Frames: 4
Frame Time: 0.008333
-10.565865 17.120900 -26.378250 177.346117 52.767539 -176.325676 -7.260313 26.286717 -3.070284 -9.482893 -0.993740 -26.425937 5.363085 17.188093 68.413933 34.328369 -3.662219 3.346427 -7.683502 10.839096 -11.266371 3.109354 -27.276428 -5.820636 30.878364 6.079253 -13.378608 -11.481437 -4.537888 34.790896 -30.392844 2.972833 -14.892928 5.322305 -4.593812 -8.012941 2.217238 -3.241056 16.997141 -4.290302 -4.348749 13.854561 7.794300 2.201015 -30.274268 5.548080 -23.266389 -15.904851 1.654475 -23.327662 16.397914 -5.935798 -12.794364 -3.295497 6.294879 40.266865 -4.241552 -80.800527 -5.811903 59.444958 -6.305496 -38.149125 21.729253 4.333467 -16.204444 10.066470 -6.783083 14.305939 0.000000 0.000000 0.000000 0.000000 0.000000 0.000000 0.000000 -3.961238 -16.602024 3.098236 72.394415 13.499669 44.300007 -0.830591 41.975141 8.960292 -11.532378 -0.602692 9.516957 -1.379156 -14.682030 -0.000000 0.000000 0.000000 0.000000 0.000000 0.000000 0.000000 
-10.550250 17.143850 -26.429850 177.252378 54.044915 -176.203852 -7.227299 25.979577 -3.325645 -9.635137 -1.167886 -26.611882 5.602491 16.486982 67.394099 33.627720 -2.546363 3.155473 -7.394893 10.022028 -11.342714 2.989100 -26.995901 -5.663805 30.807389 6.223693 -13.252249 -11.175731 -4.254926 34.349209 -30.521039 3.489380 -14.851978 5.287555 -4.493616 -7.938562 2.201909 -3.255348 16.928601 -4.531972 -4.377892 13.872877 7.942751 2.369847 -30.291955 5.558241 -23.218899 -15.895021 1.723636 -23.239338 16.427209 -5.909311 -12.766874 -3.273550 6.362349 40.393910 -4.212420 -80.774543 -5.727590 59.287005 -6.283172 -38.167508 21.668115 4.358631 -16.247313 10.054043 -6.728186 14.293240 0.000000 0.000000 0.000000 0.000000 0.000000 0.000000 0.000000 -3.888750 -16.510710 3.070009 72.667239 13.418191 44.528025 -0.800863 42.453977 9.092518 -11.752323 -0.234336 9.779741 -1.295060 -14.711755 -0.000000 0.000000 0.000000 0.000000 0.000000 0.000000 0.000000 
-10.535640 17.166950 -26.479800 177.138233 55.340456 -176.075924 -7.176270 25.653751 -3.548529 -9.807563 -1.360231 -26.749457 5.749024 15.720243 66.101052 32.755552 -1.569642 2.814850 -7.193894 9.193571 -11.565413 2.888648 -26.725264 -5.562352 30.731918 6.355694 -13.174219 -10.887453 -3.996182 34.005468 -30.686087 4.010009 -14.826528 5.227385 -4.391923 -7.815183 2.174958 -3.270223 16.879163 -4.754719 -4.409158 13.812791 8.055396 2.529527 -30.291831 5.552461 -23.131929 -15.875808 1.817136 -23.118477 16.471199 -5.874556 -12.740449 -3.242474 6.458229 40.500731 -4.183802 -80.770003 -5.641134 59.022443 -6.361497 -38.103990 21.480021 4.215409 -16.035894 9.857625 -6.727869 14.308280 0.000000 0.000000 0.000000 0.000000 0.000000 0.000000 0.000000 -3.857569 -16.432833 3.054882 72.997944 13.302182 44.757450 -0.723849 42.935535 9.211625 -11.986933 0.010158 10.041244 -1.211564 -14.754818 -0.000000 0.000000 0.000000 0.000000 0.000000 0.000000 0.000000 
-10.516335 17.189300 -26.532000 177.014106 56.717478 -175.928983 -7.098869 25.222984 -3.750724 -9.942708 -1.381038 -26.622631 5.821523 14.998830 64.341820 32.068237 -0.697400 1.982778 -6.839775 8.191653 -11.449688 2.755499 -26.406949 -5.410922 30.699291 6.570498 -13.027985 -10.614312 -3.652397 33.524796 -30.789810 4.530517 -14.796216 5.194927 -4.296109 -7.736754 2.138906 -3.252989 16.723014 -5.028681 -4.411392 13.797684 8.185884 2.729556 -30.272433 5.555815 -23.095458 -15.849444 1.851261 -23.035682 16.510673 -5.850822 -12.693219 -3.226513 6.541357 40.633442 -4.128558 -80.738388 -5.578257 58.995954 -6.227330 -38.176097 21.594974 4.425507 -16.229457 10.067447 -6.648744 14.290853 0.000000 0.000000 0.000000 0.000000 0.000000 0.000000 0.000000 -3.807230 -16.310650 3.044788 73.269805 13.139647 44.974615 -0.546741 43.403589 9.203209 -12.040127 0.511016 10.133949 -1.079391 -14.780251 -0.000000 0.000000 0.000000 0.000000 0.000000 0.000000 0.000000 
